<?xml version="1.0" encoding="utf-8"?>
<!-- Generator: Adobe Illustrator 24.2.3, SVG Export Plug-In . SVG Version: 6.00 Build 0)  -->
<svg version="1.1" id="Layer_1" xmlns="http://www.w3.org/2000/svg" xmlns:xlink="http://www.w3.org/1999/xlink" x="0px" y="0px"
	 viewBox="0 0 1017 132" style="enable-background:new 0 0 1017 132;" xml:space="preserve">
<style type="text/css">
	.st0{fill:#FFFFFF;}
</style>
<g>
	<path class="st0" d="M1015,84.89c0-12.23-6.8-17.66-20.39-20.38c-13.58-2.71-21.73-4.08-21.73-13.58c0-6.79,5.43-10.87,14.95-10.87
		c12.23,0,16.3,5.43,16.3,12.23l1.36,1.36h5.43l1.36-1.36c0-13.58-10.87-19.02-24.46-19.02c-14.95,0-23.09,8.15-23.09,17.67
		c0,10.87,8.15,16.3,21.73,19.02c13.59,2.72,20.38,4.08,20.38,14.95c0,6.79-4.07,12.23-17.66,12.23c-12.23,0-17.66-6.8-17.66-14.95
		l-1.36-1.36h-5.43l-1.36,1.36c0,12.23,9.51,21.74,25.81,21.74C1006.84,103.91,1015,95.76,1015,84.89 M956.58,71.31l1.35-1.36v-4.07
		c0-19.02-10.87-32.61-29.89-32.61s-29.89,13.59-29.89,32.61v2.71c0,19.02,9.51,35.32,31.25,35.32c19.02,0,25.81-12.23,27.17-20.38
		l-1.36-1.36h-5.43l-1.36,1.36c-2.72,8.15-8.15,13.59-19.02,13.59c-17.67,0-23.1-16.3-23.1-24.45l1.36-1.36H956.58z M948.43,64.51
		h-40.76l-1.36-1.36c0-9.51,5.43-23.09,21.74-23.09c16.3,0,21.74,13.58,21.74,23.09L948.43,64.51z M888.65,101.19V35.97l-1.36-1.36
		h-5.43l-1.36,1.36v65.22l1.36,1.36h5.43L888.65,101.19z M888.65,22.39v-8.15l-1.36-1.36h-5.43l-1.36,1.36v8.15l1.36,1.36h5.43
		L888.65,22.39z M837.03,97.12c-13.59,0-21.74-9.51-21.74-28.53c0-19.02,8.15-28.53,21.74-28.53c13.58,0,21.73,9.51,21.73,28.53
		C858.76,87.6,850.61,97.12,837.03,97.12 M858.76,93.04c0,17.66-4.08,31.25-20.38,31.25c-12.23,0-16.3-5.43-17.66-12.23l-1.36-1.36
		h-5.43l-1.36,1.36c1.36,10.87,9.51,19.02,25.81,19.02c17.67,0,28.53-10.87,28.53-38.04V35.97l-1.36-1.36h-4.08l-1.36,1.36
		l-1.36,8.16h-1.36c-2.71-5.43-9.51-10.87-21.74-10.87c-19.02,0-28.53,14.95-28.53,35.33c0,20.37,9.51,35.32,28.53,35.32
		c12.23,0,19.02-5.43,21.74-10.87H858.76z M770.46,40.06c13.58,0,23.09,10.87,23.09,28.53c0,17.66-9.51,28.53-23.09,28.53
		c-13.59,0-23.1-10.87-23.1-28.53C747.36,50.93,756.87,40.06,770.46,40.06 M770.46,103.91c17.66,0,31.24-12.23,31.24-35.32
		c0-23.09-13.58-35.33-31.24-35.33c-17.67,0-31.25,12.23-31.25,35.33C739.21,91.68,752.8,103.91,770.46,103.91 M729.7,101.19V8.81
		l-1.36-1.36h-5.43l-1.36,1.36v92.39l1.36,1.36h5.43L729.7,101.19z M680.8,40.06c13.58,0,23.09,10.87,23.09,28.53
		c0,17.66-9.51,28.53-23.09,28.53c-13.59,0-23.1-10.87-23.1-28.53C657.7,50.93,667.21,40.06,680.8,40.06 M680.8,103.91
		c17.66,0,31.25-12.23,31.25-35.32c0-23.09-13.59-35.33-31.25-35.33c-17.66,0-31.25,12.23-31.25,35.33
		C649.55,91.68,663.14,103.91,680.8,103.91 M641.4,101.19V60.43c0-17.66-9.51-27.17-24.45-27.17c-9.51,0-17.67,4.08-21.74,10.87
		h-1.36l-1.35-8.16l-1.36-1.36h-4.08l-1.36,1.36v65.22l1.36,1.36h5.44l1.35-1.36V64.51c0-14.95,6.8-24.45,21.74-24.45
		c10.87,0,17.66,6.79,17.66,20.37v40.76l1.36,1.36h5.43L641.4,101.19z M572.11,101.19V60.43c0-17.66-9.51-27.17-24.45-27.17
		c-9.51,0-17.66,4.08-21.74,10.87h-1.36V8.81l-1.36-1.36h-5.43l-1.36,1.36v92.39l1.36,1.36h5.43l1.36-1.36V64.51
		c0-14.95,6.8-24.45,21.74-24.45c10.87,0,17.66,6.79,17.66,20.37v40.76l1.36,1.36h5.44L572.11,101.19z M455.28,68.59
		c0-19.02,9.51-28.53,23.09-28.53c13.58,0,19.02,8.15,20.37,16.3l1.36,1.36h5.44l1.36-1.36c-1.36-13.58-12.23-23.09-28.53-23.09
		c-17.66,0-31.24,10.87-31.24,35.33c0,24.45,13.58,35.32,31.24,35.32c16.3,0,27.17-9.51,28.53-23.09l-1.36-1.36h-5.44l-1.36,1.36
		c-1.36,8.15-6.79,16.3-20.37,16.3C464.78,97.12,455.28,87.6,455.28,68.59 M440.33,71.31l1.36-1.36v-4.07
		c0-19.02-10.87-32.61-29.9-32.61c-19.01,0-29.89,13.59-29.89,32.61v2.71c0,19.02,9.51,35.32,31.25,35.32
		c19.02,0,25.81-12.23,27.17-20.38l-1.36-1.36h-5.43l-1.36,1.36c-2.71,8.15-8.15,13.59-19.02,13.59c-17.66,0-23.09-16.3-23.09-24.45
		l1.36-1.36H440.33z M432.18,64.51h-40.76l-1.36-1.36c0-9.51,5.43-23.09,21.73-23.09c16.31,0,21.74,13.58,21.74,23.09L432.18,64.51z
		 M395.57,12.88V8.81l-1.36-1.36h-70.65l-1.36,1.36v4.08l1.36,1.36h29.89l1.36,1.36v85.59l1.36,1.36h5.43l1.36-1.36V15.6l1.36-1.36
		h29.89L395.57,12.88z"/>
	<path class="st0" d="M322.2,83.65v18.9h-61.35V7.45h21.6v76.2H322.2z M38.55,102.55c22.13,0,40.73-15.12,46.03-35.58l53.8,42.03
		l53.77-42.01v35.56h61.35v-18.9h-39.75V7.45h-21.6v35.56L140.58,83.3l-11.53-9.01L153.73,55l26.88-21L165.27,22L113.69,62.3
		l-11.53-9.01l51.57-40.29L138.38,1l-53.8,42.03C79.28,22.57,60.68,7.45,38.55,7.45H0v95.1H38.55z M21.6,83.65v-57.3h16.95
		C52.88,26.35,64.5,39.18,64.5,55c0,15.82-11.62,28.65-25.95,28.65H21.6z"/>
</g>
</svg>
