<?xml version="1.0" encoding="utf-8"?>
<!-- Generator: Adobe Illustrator 23.0.1, SVG Export Plug-In . SVG Version: 6.00 Build 0)  -->
<svg version="1.1" id="Capa_1" xmlns="http://www.w3.org/2000/svg" xmlns:xlink="http://www.w3.org/1999/xlink" x="0px" y="0px"
	 viewBox="0 0 60 60" style="enable-background:new 0 0 60 60;" xml:space="preserve">
<style type="text/css">
	.st0{fill:#ADADAD;}
</style>
<g>
	<path class="st0" d="M9,22c-4.4,0-8,3.6-8,8s3.6,8,8,8s8-3.6,8-8s-4.6-8-9-8H9z"/>
	<path class="st0" d="M52,22c-4.4,0-8,3.6-8,8s3.6,8,8,8s8-3.6,8-8S56.4,22,52,22z"/>
	<path class="st0" d="M30,22c-4.4,0-8,3.6-8,8s3.6,8,8,8s8-3.6,8-8S34.4,22,30,22z"/>
</g>
</svg>
