<?xml version="1.0" encoding="utf-8"?>
<!-- Generator: Adobe Illustrator 21.1.0, SVG Export Plug-In . SVG Version: 6.00 Build 0)  -->
<svg version="1.1" id="svg" xmlns="http://www.w3.org/2000/svg" xmlns:xlink="http://www.w3.org/1999/xlink" x="0px" y="0px"
	 width="32px" height="32px" viewBox="0 0 32 32" fill="#F2AF00" style="enable-background:new 0 0 32 32;" xml:space="preserve">
<g id="XMLID_1349_">
	<path id="XMLID_1916_" d="M15.9,2c0.3,0,0.5,0.1,0.6,0.4L30,29.1c0.1,0.2,0.1,0.4,0,0.6S29.7,30,29.4,30H2.7
		c-0.2,0-0.5-0.1-0.6-0.3c-0.1-0.2-0.1-0.4,0-0.6L15.4,2.4C15.6,2.1,15.8,2,15.9,2 M16.1,0C16.1,0,15.9,0,16.1,0
		C15.9,0,15.9,0,16.1,0L16.1,0c-1,0-1.9,0.6-2.4,1.5L0.3,28.2C-0.1,29-0.1,30,0.4,30.8C0.9,31.5,1.8,32,2.7,32h26.7
		c0.9,0,1.8-0.5,2.3-1.3c0.5-0.8,0.5-1.7,0.1-2.6L18.4,1.5C18,0.6,17.1,0,16.1,0L16.1,0L16.1,0z"/>
	<path id="XMLID_1866_" d="M14.1,26.1c0-1.1,0.9-2,2-2s2,0.9,2,2s-0.9,2-2,2S14.1,27.2,14.1,26.1z"/>
	<rect id="XMLID_1758_" x="14.6" y="9.5" width="3" height="12.5"/>
</g>
</svg>
