<?xml version="1.0" encoding="utf-8"?>
<!-- Generator: Adobe Illustrator 21.1.0, SVG Export Plug-In . SVG Version: 6.00 Build 0)  -->
<svg version="1.1" id="svg" xmlns="http://www.w3.org/2000/svg" xmlns:xlink="http://www.w3.org/1999/xlink" x="0px" y="0px"
	 width="32px" height="32px" viewBox="0 0 32 32" style="enable-background:new 0 0 32 32;" xml:space="preserve">
<g>
	<rect x="27" y="10" width="2" height="2"/>
	<rect x="23" y="10" width="2" height="2"/>
	<rect x="26" y="23" width="2" height="2"/>
	<rect x="22" y="23" width="2" height="2"/>
	<path d="M32,6c0-1.1-0.9-2-2-2H2C0.9,4,0,4.9,0,6v20c0,1.1,0.9,2,2,2h28c1.1,0,2-0.9,2-2V6z M2,6h28v9H2V6z M30,26H2v-9h28V26z"/>
</g>
</svg>
