<?xml version="1.0" encoding="utf-8"?>
<!-- Generator: Adobe Illustrator 19.0.0, SVG Export Plug-In . SVG Version: 6.00 Build 0)  -->
<svg version="1.1" id="svg" xmlns="http://www.w3.org/2000/svg" xmlns:xlink="http://www.w3.org/1999/xlink" x="0px" y="0px"
	 width="32px" height="32px" viewBox="0 0 32 32" style="enable-background:new 0 0 32 32;" xml:space="preserve">
<g id="XMLID_356_">
	<path id="XMLID_561_" d="M15.3,3.4c3.7,0,7.6,1.7,9.7,4.2h-6.6v2h9.5V0.1h-2v5.6c-2.6-2.6-6.7-4.2-10.6-4.2C7.7,1.4,2,7.4,2,15.4h2
		C4,8.6,8.9,3.4,15.3,3.4z"/>
	<path id="XMLID_560_" d="M26,16.7c0,6.8-4.9,12-11.3,12C11,28.7,7.2,27,5,24.5h6.6v-2H2.1V32h2v-5.6c2.6,2.6,6.7,4.2,10.6,4.2
		c7.6,0,13.3-6,13.3-14H26z"/>
</g>
</svg>
