<svg width="300" height="300" xmlns="http://www.w3.org/2000/svg" xmlns:svg="http://www.w3.org/2000/svg" xmlns:xlink="http://www.w3.org/1999/xlink">
 <!-- Created with SVG-edit - http://svg-edit.googlecode.com/ -->
 <defs>
  <symbol viewBox="0 0 32 32" height="32px" width="32px" y="0px" x="0px" id="svg_13" xmlns:xlink="http://www.w3.org/1999/xlink" xmlns="http://www.w3.org/2000/svg">
   <g>
    <rect height="8.5" width="8.5" y="7.5" x="16"/>
    <rect height="8.5" width="8.5" y="16" x="7.5"/>
    <path d="m29.9,0l-19.2,0c-1.2,0 -2.2,1 -2.2,2.1l0,6.4l-6.4,0c-1.1,0 -2.1,1 -2.1,2.2l0,19.2c0,1.1 1,2.1 2.1,2.1l19.2,0c1.2,0 2.1,-1 2.1,-2.1l0,-6.4l6.4,0c1.2,0 2.1,-1 2.1,-2.1l0,-19.3c0.1,-1.1 -0.9,-2.1 -2,-2.1zm-2.2,19.2l-8.5,0l0,8.5l-14.9,0l0,-14.9l8.5,0l0,-8.5l14.9,0l0,14.9z"/>
   </g>
  </symbol>
  <symbol id="svg_19" height="415.1" width="273.7" xmlns:svg="http://www.w3.org/2000/svg" xmlns="http://www.w3.org/2000/svg">
   <g>
    <title>Layer 1</title>
    <g id="svg_16">
     <path fill="#007db8" stroke-width="19" stroke-dasharray="null" stroke-linejoin="null" stroke-linecap="null" d="m12.48573,172.81051l123.50001,-123.50001l123.50001,123.50001l-123.50001,123.50001l-123.50001,-123.50001z" id="svg_18" stroke="#ffffff"/>
     <path fill="#ffffff" d="m134.35256,113.99999c8.57715,0.16059 16.06555,1.39176 22.96976,5.03175c8.86925,4.63028 14.15362,11.8032 15.1627,22.00053c0.82319,8.27027 -2.04471,15.06849 -7.54152,20.95671c-3.53177,3.74705 -7.67429,6.71792 -11.81681,9.71556c-1.08874,0.77617 -2.12437,1.60588 -3.21311,2.35529c-3.02723,2.14117 -5.17815,4.95146 -6.37311,8.48439c-0.37176,1.09735 -0.84975,2.14117 -1.32773,3.18499c-1.1684,2.67646 -3.21311,4.28234 -6.08101,4.76411c-3.53177,0.58882 -6.82454,0.24088 -9.4269,-2.56941c-2.01815,-2.16794 -2.81479,-4.79087 -2.76168,-7.73498c0.07966,-5.51352 2.70857,-9.84939 6.53244,-13.43585c3.26622,-3.05117 6.87765,-5.6741 10.22353,-8.61821c2.33681,-2.06088 4.67362,-4.17528 6.63866,-6.61087c4.2753,-5.2994 3.26622,-13.59644 -1.91193,-17.58437c-2.46958,-1.90029 -5.33748,-2.6497 -8.33816,-2.75676c-2.09782,-0.05353 -4.24874,0.10706 -6.29345,0.50853c-4.43462,0.93676 -7.16975,3.98793 -9.13479,7.92233c-1.00908,2.03411 -1.93849,4.12175 -3.05378,6.07557c-3.13345,5.54028 -10.17043,7.0391 -15.29547,3.26529c-2.60235,-1.92705 -3.47866,-4.68381 -3.34588,-7.81527c0.26555,-5.88822 2.73513,-10.89321 6.69177,-15.09526c7.75395,-8.18998 17.47295,-11.8032 27.69648,-12.04409l-0.00001,0.00002zm11.92303,98.78828c0,6.79822 -5.49681,12.31173 -12.26824,12.31173c-6.69177,0 -12.13547,-5.54028 -12.16202,-12.28497c0,-6.79822 5.57647,-12.41879 12.24169,-12.3385c6.71832,0.05353 12.18858,5.59381 12.18858,12.31173l-0.00001,0.00001z" id="svg_17"/>
    </g>
   </g>
  </symbol>
 </defs>
 <g>
  <title>Layer 1</title>
  <g stroke="null" id="svg_11"/>
  <use fill="#bfbfbf" x="0" y="0" transform="matrix(0.8570309206983773,0,0,0.8570309206983773,0.7119249977922062,42.694562817679866) " xlink:href="#svg_13" id="svg_14"/>
  <g id="svg_15"/>
  <use x="-16.524" y="19.8288" transform="matrix(0.6091754171068614,0,0,0.6091754171068614,144.05261540388616,-31.7992949999702) " xlink:href="#svg_19" id="svg_20"/>
  <g id="svg_21"/>
 </g>
</svg>